<?xml version="1.0" encoding="utf-8"?>
<!-- Generator: Adobe Illustrator 26.4.1, SVG Export Plug-In . SVG Version: 6.00 Build 0)  -->
<svg version="1.1" id="Layer_1" xmlns="http://www.w3.org/2000/svg" xmlns:xlink="http://www.w3.org/1999/xlink" x="0px" y="0px"
	 viewBox="0 0 612 792" style="enable-background:new 0 0 612 792;" xml:space="preserve">
<style type="text/css">
	.st0{fill:none;stroke:#4C1751;stroke-miterlimit:10;}
</style>
<polygon class="st0" points="39.69,158 166.89,296.15 2.6,438.15 136.78,783.49 -91.43,442 "/>
<polygon class="st0" points="572.18,158 444.98,296.15 609.27,438.15 475.09,783.49 703.3,442 "/>
<polygon class="st0" points="557.86,123.97 536.73,76.92 514.1,26.51 362.89,185.8 362.89,114.89 492.48,-21.63 485.04,-38.19 
	461.56,-90.49 306.13,-90.49 305.74,-90.49 150.31,-90.49 126.83,-38.19 119.39,-21.63 249.37,115.29 249.37,186.2 97.77,26.51 
	75.14,76.92 54.01,123.97 210.43,288.44 210.43,288.44 210.43,881.51 288.66,826.58 288.66,370.69 288.66,362.07 249.37,294.02 
	362.89,294.02 323.21,362.73 323.21,370.69 323.21,826.58 401.44,881.51 401.44,288.44 401.44,288.44 "/>
<path class="st0" d="M461.56-90.49"/>
</svg>
